<svg width="162" height="137" viewBox="0 0 162 137" fill="none" xmlns="http://www.w3.org/2000/svg">
<path d="M13 108V17L18.5 7.5L29 5L30 97.5L21 100L13 108Z" fill="#B7B7B7"/>
<path d="M145 20.5H30L29 97.5L19 101L13 108.5V115.5L18 125L29 131L145 130V20.5Z" fill="white"/>
<rect x="112" y="51" width="7" height="59" fill="#FFC702"/>
<rect x="111" y="34" width="7" height="17" fill="#F86EE2"/>
<path d="M15.5625 113.75H11.1875C11.1875 124.031 19.5 132.344 29.7812 132.344H146.812V18.5938H31.9688V2.1875H29.7812C19.5 2.1875 11.1875 10.5 11.1875 20.7812V113.75H15.5625C15.5625 105.875 21.9062 99.5312 29.7812 99.5312H31.9688V22.9688H142.438V127.969H29.7812C21.9062 127.969 15.5625 121.625 15.5625 113.75ZM27.5938 95.2656C22.7812 95.8125 18.5156 98.2188 15.5625 101.719V20.7812C15.5625 13.6719 20.8125 7.76562 27.5938 6.78125V95.2656Z" fill="black"/>
<path d="M121.656 31.7188H108.531V105.547L115.094 118.672L121.656 105.547V31.7188ZM117.281 36.0938V48.125H112.906V36.0938H117.281ZM115.094 108.828L112.906 104.453V52.5H117.281V104.453L115.094 108.828Z" fill="black"/>
<path d="M54.9375 84.2188V88.5938H63.6875L58.2188 118.891L62.4844 119.656L68.0625 88.5938H81.1875L86.7656 119.656L91.0312 118.891L85.5625 88.5938H94.3125V84.2188H84.7969L82.2812 69.7813C85.6719 67.375 87.75 63.3281 87.75 59.0625C87.75 52.6094 83.0469 47.1406 76.8125 46.1563V31.7188H72.4375V46.1563C66.2031 47.25 61.5 52.6094 61.5 59.0625C61.5 63.3281 63.5781 67.2656 66.9688 69.7813L64.4531 84.2188H54.9375ZM70.4688 66.7188C67.625 65.1875 65.875 62.2344 65.875 59.0625C65.875 54.25 69.8125 50.3125 74.625 50.3125C79.4375 50.3125 83.375 54.25 83.375 59.0625C83.375 62.2344 81.625 65.1875 78.7812 66.7188L77.3594 67.4844L80.4219 84.2188H68.8281L71.7813 67.4844L70.4688 66.7188Z" fill="black"/>
</svg>
