<svg width="135" height="155" viewBox="0 0 135 155" fill="none" xmlns="http://www.w3.org/2000/svg">
<path d="M95.5 33.5V13.5L116.5 33.5H95.5Z" fill="#BEBEBE"/>
<path d="M18.5 145V11.5H95V33.5H118.5V145H18.5Z" fill="white"/>
<path d="M47.5 47L58 37L62.5 33.5L74.5 34.5L77.5 35.5L81.5 40L90 49L92.5 59.5V65L95.5 66V69.5L90 72L65.5 75.5L46 73L41 69.5V67L43.5 62L47.5 47Z" fill="#FFC702"/>
<path d="M15.8594 9.21875V146.781H120.141V32.7375L96.6219 9.21875H15.8594ZM97.9531 16.7625L112.597 31.4062H97.9531V16.7625ZM20.2969 142.344V13.6562H93.5156V35.8438H115.703V142.344H20.2969Z" fill="black"/>
<path d="M106.828 92.4219H29.1719V96.8594H106.828V92.4219Z" fill="black"/>
<path d="M106.828 103.516H29.1719V107.953H106.828V103.516Z" fill="black"/>
<path d="M106.828 114.609H79.0938V119.047H106.828V114.609Z" fill="black"/>
<path d="M68 77.5562C77.6516 77.5562 87.3031 75.8922 96.5109 72.675L97.9531 72.1203V64.0219L94.5141 63.0234V59.8062C94.5141 49.8219 88.9672 40.725 80.2031 36.2875V36.0656C80.2031 33.514 78.0953 31.4062 75.5438 31.4062H70.2188V30.7406H65.7812V31.4062H60.4563C57.9047 31.4062 55.7969 33.514 55.7969 36.0656V36.2875C47.0328 40.8359 41.4859 49.9328 41.4859 59.8062V63.0234L38.0469 64.1328V72.2312L39.4891 72.7859C48.6969 75.8922 58.3484 77.5562 68 77.5562ZM42.4844 67.4609L45.9234 66.4625V59.9172C45.9234 52.4844 49.6953 45.4953 55.7969 41.5015V48.2687H60.2344V36.0656C60.2344 35.9547 60.3453 35.8437 60.4563 35.8437H65.7812V55.0359H70.2188V35.8437H75.5438C75.6547 35.8437 75.7656 35.9547 75.7656 36.0656V48.2687H80.2031V41.5015C86.3047 45.6062 90.0766 52.4844 90.0766 59.9172V66.4625L93.5156 67.4609V69.014C76.9859 74.45 59.0141 74.45 42.4844 69.014V67.4609Z" fill="black"/>
<path d="M84.9734 62.5797H50.9156V67.0172H84.9734V62.5797Z" fill="black"/>
</svg>
