<svg width="134" height="134" viewBox="0 0 134 134" fill="none" xmlns="http://www.w3.org/2000/svg">
<path d="M67 5L5 66L9.5 72L67 14L124.5 70.5L128.5 66L117 55.5L114.5 48.5L112.5 14H99L97 35L67 5Z" fill="#773838"/>
<path d="M19.5 129V62L67 16L114 62V129H19.5Z" fill="white"/>
<rect x="70" y="100" width="22" height="9" transform="rotate(90 70 100)" fill="#EF9F27"/>
<rect x="41" y="60" width="52" height="16" fill="#E07437"/>
<path d="M37.478 79.0391H91.9155V82.3891L63.6499 85.5297V98.4062H59.9858V123.531H71.5015V98.4062H67.8374V89.2984L96.103 86.1578V79.0391V76.9453V56.5312H37.478V79.0391ZM67.314 119.344H64.1733V102.594H67.314V119.344ZM41.6655 60.7188H91.9155V74.8516H41.6655V60.7188Z" fill="black"/>
<path d="M17.7969 66.7906V131.906H116.203V66.7906L124.578 75.1656L132.744 67L116.203 50.4594V12.5625H96.3125V30.5687L67 1.25623L1.25623 67L9.42185 75.1656L17.7969 66.7906ZM112.016 62.8125V127.719H21.9844V62.8125H21.775L67 17.5875L112.225 62.8125H112.016ZM67 7.11873L100.5 40.6187V16.75H112.016V52.1343L126.881 67L124.578 69.3031L67 11.725L9.42185 69.3031L7.11873 67L67 7.11873Z" fill="black"/>
</svg>
