<svg width="128" height="128" viewBox="0 0 128 128" fill="none" xmlns="http://www.w3.org/2000/svg">
<path d="M52 15V4.5H76V15L89.5 20.5L98.5 13.5L115.5 30.5L107 38L112.5 51.5H124.5V77H112.5L107 90L115.5 98L97 114.5L89.5 107.5L76 112.5V124.5H52V112.5L38 107.5L29.5 114.5L13 98L21 90L15.5 75.5H4V51.5H15.5L21 39.5L13 30.5L29.5 13.5L38 20.5L52 15Z" fill="white"/>
<circle cx="64" cy="64" r="28" fill="#9BCB4D"/>
<path d="M109.6 38.9L118.1 30.4L97.6 9.9L89.1 18.4C85.7 16.5 82.2 15.1 78.5 14V2H49.5V14C45.8 15.1 42.3 16.5 38.9 18.4L30.4 9.9L9.9 30.4L18.4 38.9C16.5 42.3 15.1 45.8 14 49.5H2V78.5H14C15.1 82.2 16.5 85.7 18.4 89.1L9.9 97.6L30.4 118.1L38.9 109.6C42.3 111.5 45.8 112.9 49.5 114V126H78.5V114C82.2 112.9 85.7 111.5 89.1 109.6L97.6 118.1L118.1 97.6L109.6 89.1C111.5 85.7 112.9 82.2 114 78.5H126V49.5H114C112.9 45.8 111.4 42.3 109.6 38.9ZM122 74.5H110.9L110.5 76C109.4 80.3 107.7 84.5 105.4 88.4L104.6 89.7L112.5 97.6L97.7 112.4L89.8 104.5L88.5 105.3C84.6 107.6 80.4 109.3 76.1 110.4L74.6 110.8V122H53.6V110.9L52.1 110.5C47.8 109.4 43.6 107.7 39.7 105.4L38.4 104.6L30.5 112.5L15.6 97.6L23.5 89.7L22.7 88.4C20.4 84.5 18.7 80.3 17.6 76L17.2 74.5H6V53.5H17.1L17.5 52C18.6 47.7 20.3 43.5 22.6 39.6L23.4 38.3L15.5 30.4L30.3 15.6L38.2 23.5L39.5 22.7C43.4 20.4 47.6 18.7 51.9 17.6L53.4 17.2V6H74.4V17.1L75.9 17.5C80.2 18.6 84.4 20.3 88.3 22.6L89.6 23.4L97.5 15.5L112.3 30.3L104.4 38.2L105.2 39.5C107.5 43.4 109.2 47.6 110.3 51.9L110.7 53.4H122V74.5Z" fill="black"/>
<path d="M64 32C46.4 32 32 46.4 32 64C32 81.6 46.4 96 64 96C81.6 96 96 81.6 96 64C96 46.4 81.6 32 64 32ZM64 92C48.6 92 36 79.4 36 64C36 48.6 48.6 36 64 36C79.4 36 92 48.6 92 64C92 79.4 79.4 92 64 92Z" fill="black"/>
<path d="M63.9 61.5C62.2 60.7 60.8 60 60.8 57.9C60.8 56.2 62.3 54.7 64 54.7C65 54.7 66.2 55.2 66.8 56.4L70.5 54.5999C69.7 52.6999 67.9 51.4 66 50.9V49.2H62V50.9C58.9 51.8 56.7 54.4999 56.7 58.0999C56.7 62.3999 59.5 63.9999 63.2 65.5999C65.1 66.3999 67.3 67.4 67.3 70C67.3 71.7999 65.7 73.5 63.9 73.5C62.1 73.5 61 72.6 60.3 71.3C59.1 71.7 57.9 72.1 56.8 72.4C57.4 74.7 59.4 76.7 62.1 77.3V79.3H66.1V77.3C69.1 76.4 71.4 73.4999 71.4 70.0999C71.3 65.4999 69.1 63.8 63.9 61.5Z" fill="black"/>
</svg>
