<svg width="32" height="33" viewBox="0 0 32 33" fill="none" xmlns="http://www.w3.org/2000/svg">
<path fill-rule="evenodd" clip-rule="evenodd" d="M23 12.5C23 18.299 18.299 23 12.5 23C6.70101 23 2 18.299 2 12.5C2 6.70101 6.70101 2 12.5 2C18.299 2 23 6.70101 23 12.5ZM20.0494 22.4636C17.9519 24.0554 15.3362 25 12.5 25C5.59644 25 0 19.4036 0 12.5C0 5.59644 5.59644 0 12.5 0C19.4036 0 25 5.59644 25 12.5C25 15.8464 23.685 18.8857 21.5435 21.1293L31.4824 31.0681L30.0682 32.4823L20.0494 22.4636Z" fill="#FFC702"/>
</svg>
