<svg width="15" height="15" viewBox="0 0 15 15" fill="none" xmlns="http://www.w3.org/2000/svg">
<path d="M14.2802 14.4542L14.9833 11.4073C15.0595 11.0763 14.8866 10.7364 14.5761 10.6017L11.2948 9.1954C11.0077 9.07236 10.6708 9.15439 10.4745 9.39755L9.02141 11.1729C6.77434 10.1183 4.9052 8.27548 3.83001 5.98154L5.6054 4.52841C5.84856 4.32919 5.93059 3.99521 5.80755 3.7081L4.4013 0.426849C4.2636 0.113372 3.92376 -0.0594793 3.5927 0.0166926L0.545827 0.719817C0.229421 0.79306 0.00090499 1.07431 0.000904975 1.40536C0.000904647 8.90829 6.08 14.9991 13.5947 14.9991C13.9228 14.9991 14.207 14.7735 14.2802 14.4542Z" fill="#FFC702"/>
</svg>
