<svg width="14" height="15" viewBox="0 0 14 15" fill="none" xmlns="http://www.w3.org/2000/svg">
<path d="M13.3283 14.4542L13.9845 11.4073C14.0556 11.0763 13.8943 10.7364 13.6044 10.6017L10.5419 9.19543C10.274 9.07238 9.95952 9.15441 9.77631 9.39758L8.42006 11.173C6.3228 10.1183 4.57827 8.27551 3.57475 5.98157L5.23178 4.52844C5.45874 4.32922 5.5353 3.99524 5.42046 3.70813L4.10796 0.426879C3.97944 0.113403 3.66225 -0.0594487 3.35327 0.0167231L0.509519 0.719848C0.214206 0.79309 0.000924063 1.07434 0.000924049 1.40539C0.000923721 8.90832 5.67475 14.9991 12.6884 14.9991C12.9947 14.9991 13.2599 14.7736 13.3283 14.4542Z" fill="#787878"/>
</svg>
